# xmcd
#
# Track frame offsets: 
#        150
#        17425
#        43112
#        80115
#        113567
#        134157
#        159392
#        206052
#        242587
#        258645
#
# Disc length: 4607 seconds
#
# Revision: 7
# Processed by: cddbd v1.5.2PL0 Copyright (c) Steve Scherf et al.
# Submitted via: ExactAudioCopy v1.3
#
DISCID=8811fd0a
DTITLE=Huelgas Ensemble, Paul Van Nevel - Vivarte 2-51 - Music from th
DTITLE=e Court of King Janus at Nicosia
DYEAR=1993
DGENRE=Early music
TTITLE0=Sanctus in eternis - Sanctus et ingenitus (motet)
TTITLE1=Si doulchement mon ceur je sens souspris (ballade)
TTITLE2=Je sui trestout d'amour raimpli (virelai)
TTITLE3=Je prens d'amour noriture (virelai)
TTITLE4=Gloria (mass section)
TTITLE5=Certes mout fu - Nous devons tresfort amer (motet)
TTITLE6=Je prens plaisir en une dame (ballade)
TTITLE7=Credo (mass section)
TTITLE8=Personet armonia (motet, instrumental)
TTITLE9=Si doulcement me fait amours - Nulz vrais amans (ballade doubl
TTITLE9=e)
EXTD=Dir: Paul Van Nevel\\n(P)+(C) Sony Music\\nSony Vivarte SK 53976\\
EXTD=n YEAR: 1993
EXTT0=
EXTT1=
EXTT2=
EXTT3=
EXTT4=
EXTT5=
EXTT6=
EXTT7=
EXTT8=
EXTT9=
PLAYORDER=
